<?xml version="1.0" encoding="UTF-8" standalone="no"?>
<!-- Created with Inkscape (http://www.inkscape.org/) -->

<svg
   xmlns:dc="http://purl.org/dc/elements/1.1/"
   xmlns:cc="http://creativecommons.org/ns#"
   xmlns:rdf="http://www.w3.org/1999/02/22-rdf-syntax-ns#"
   xmlns:svg="http://www.w3.org/2000/svg"
   xmlns="http://www.w3.org/2000/svg"
   xmlns:sodipodi="http://sodipodi.sourceforge.net/DTD/sodipodi-0.dtd"
   xmlns:inkscape="http://www.inkscape.org/namespaces/inkscape"
   width="75mm"
   height="110mm"
   viewBox="0 0 210 297"
   version="1.1"
   id="svg8"
   inkscape:version="0.92.2 (5c3e80d, 2017-08-06)"
   sodipodi:docname="Voyager Archives Logo.svg">
  <defs
     id="defs2" />
  <sodipodi:namedview
     id="base"
     pagecolor="#ffffff"
     bordercolor="#666666"
     borderopacity="1.0"
     inkscape:pageopacity="0.0"
     inkscape:pageshadow="2"
     inkscape:zoom="1.979899"
     inkscape:cx="135.89999"
     inkscape:cy="315.23041"
     inkscape:document-units="mm"
     inkscape:current-layer="svg8"
     showgrid="false"
     inkscape:window-width="1314"
     inkscape:window-height="791"
     inkscape:window-x="0"
     inkscape:window-y="23"
     inkscape:window-maximized="0" />
  <metadata
     id="metadata5">
    <rdf:RDF>
      <cc:Work
         rdf:about="">
        <dc:format>image/svg+xml</dc:format>
        <dc:type
           rdf:resource="http://purl.org/dc/dcmitype/StillImage" />
        <dc:title></dc:title>
      </cc:Work>
    </rdf:RDF>
  </metadata>
  <g
     inkscape:label="Layer 1"
     inkscape:groupmode="layer"
     id="layer1"
     transform="matrix(2.8739382,0,0,2.8739382,1.9262685,-552.06403)">
    <path
       style="fill:#000000;stroke-width:0.26458335"
       d="m 29.120386,190.74629 c -28.42875067,0 -27.9413187,-0.0206 -28.41066867,1.20251 -0.09035,0.23556 -0.16433,23.55341 -0.16433,51.81751 0,40.71391 0.0687,51.47563 0.330729,51.80407 0.18189797,0.228 0.56885397,0.54464 0.85989597,0.70383 0.372941,0.20397 8.4425437,0.29166 27.3316637,0.29766 28.489158,0.009 27.993779,0.029 28.463377,-1.19476 0.214861,-0.55992 0.214861,-102.86839 0,-103.42831 -0.469349,-1.22308 0.01812,-1.20251 -28.410667,-1.20251 z m 41.320474,0.81648 -8.771041,3.19257 v 1.55546 l 8.771041,3.19257 v -1.1901 l -7.71684,-2.75074 7.71684,-2.75125 z M 5.0433033,195.50879 H 29.120386 53.197469 v 22.88645 22.88646 H 29.120386 5.0433033 v -22.88646 z m 24.0770827,4.71237 c -2.566839,0 -5.133858,0.17115 -5.81515,0.51366 -1.59159,0.80015 -1.705141,3.24934 -0.185002,3.98426 0.808662,0.39093 11.069527,0.40481 11.922787,0.016 1.592641,-0.72565 1.526863,-3.17862 -0.107487,-4.00027 -0.681289,-0.34251 -3.248308,-0.51366 -5.815148,-0.51366 z m 35.836572,0.0599 c -1.072111,0 -1.918375,0.27269 -2.538863,0.81856 -0.62049,0.5498 -0.931209,1.29032 -0.931209,2.22105 0,0.92288 0.310719,1.65885 0.931209,2.20865 0.620488,0.5498 1.466752,0.82476 2.538863,0.82476 1.07211,0 1.918374,-0.27496 2.538862,-0.82476 0.624416,-0.5498 0.936379,-1.28577 0.936379,-2.20865 0,-0.93073 -0.311963,-1.67125 -0.936379,-2.22105 -0.620488,-0.54587 -1.466752,-0.81856 -2.538862,-0.81856 z m 0,1.14257 c 0.852191,0 1.484174,0.16518 1.896525,0.49506 0.416277,0.33381 0.624769,0.80113 0.624769,1.40198 0,0.593 -0.208492,1.05629 -0.624769,1.3901 -0.412351,0.3338 -1.044334,0.50074 -1.896525,0.50074 -0.832554,0 -1.461024,-0.16921 -1.885157,-0.50694 -0.420203,-0.33381 -0.630451,-0.79483 -0.630451,-1.3839 0,-0.59692 0.212005,-1.06249 0.636137,-1.39629 0.428056,-0.33381 1.05477,-0.50075 1.879471,-0.50075 z m 3.292821,5.92005 -6.26215,2.62155 -2.745052,-1.22525 v 1.18391 l 9.007202,3.84111 v -1.16066 l -4.877736,-2.03811 4.877736,-2.02055 z m -47.355249,2.71715 -0.64957,0.64957 c -0.64843,0.6485 -0.649573,0.65707 -0.649573,6.23476 0,3.48961 0.106934,5.78584 0.285252,6.11901 0.156972,0.29332 0.66299,0.6979 1.124479,0.89865 0.643462,0.27994 2.522228,0.36717 8.057907,0.37517 7.67158,0.011 8.683709,-0.1276 9.29659,-1.27279 0.17889,-0.33425 0.285771,-2.62483 0.285771,-6.12004 0,-5.57769 -0.0011,-5.58626 -0.649573,-6.23476 l -0.649055,-0.64957 h -8.226372 z m 1.322401,2.42052 H 36.11479 v 9.05371 H 22.216931 Z m 1.781805,0.64699 2.80086,7.69462 h 0.329179 1.035079 0.0036 l 0.104386,-0.29662 0.672828,-1.84795 h 3.305222 l 0.754478,2.14457 h 1.090372 l -2.800864,-7.69462 h -0.329178 -1.035079 -0.0088 l -0.417028,1.16892 -2.016932,5.5423 -2.392619,-6.71122 z m 6.613549,0.9679 1.3224,3.70365 h -2.670638 z m 32.965945,0.64027 c -0.608706,0 -1.10952,0.20622 -1.502233,0.61857 -0.392716,0.41235 -0.589111,0.91492 -0.589111,1.50792 0,0.32202 0.03173,0.60328 0.09457,0.84284 0.05891,0.23956 0.133434,0.45156 0.223758,0.63614 0.07069,0.15708 0.164856,0.31771 0.28267,0.48266 0.121743,0.16886 0.215908,0.30282 0.28267,0.401 h -0.700733 v 1.10123 h 4.464844 c 0.424132,0 0.77992,-0.0647 1.066602,-0.1943 0.286681,-0.1296 0.520083,-0.31793 0.700733,-0.56534 0.184576,-0.25134 0.314507,-0.54997 0.389122,-0.89556 0.07854,-0.34166 0.117825,-0.74427 0.117825,-1.20768 0,-0.39664 -0.03577,-0.79925 -0.106456,-1.20767 -0.07069,-0.40843 -0.135395,-0.72039 -0.194302,-0.93638 H 66.98319 v 0.0589 c 0.145306,0.38093 0.255082,0.75006 0.329697,1.10743 0.07854,0.35737 0.117822,0.68142 0.117822,0.97203 0,0.23956 -0.01561,0.46944 -0.04703,0.68936 -0.03142,0.21992 -0.09209,0.40826 -0.182419,0.56534 -0.09425,0.16494 -0.224185,0.29033 -0.389123,0.37672 -0.164941,0.0903 -0.372915,0.13591 -0.624253,0.13591 h -0.170532 c -0.03142,-0.64405 -0.07876,-1.24709 -0.141591,-1.80867 -0.06284,-0.56158 -0.182431,-1.04275 -0.359154,-1.44332 -0.17672,-0.39665 -0.42046,-0.70282 -0.730702,-0.91881 -0.306319,-0.21207 -0.708933,-0.31833 -1.20768,-0.31833 z m 0.07648,1.14309 c 0.333806,0 0.595426,0.0982 0.783931,0.29455 0.192429,0.19636 0.333423,0.45343 0.423746,0.77153 0.07462,0.26705 0.131779,0.62862 0.171048,1.08417 0.03927,0.45948 0.06873,0.85806 0.08837,1.19579 h -1.83193 c -0.212066,-0.2749 -0.394613,-0.57352 -0.547769,-0.89555 -0.149233,-0.32202 -0.224277,-0.6773 -0.224277,-1.06608 0,-0.46733 0.09468,-0.81506 0.283186,-1.04283 0.192432,-0.22778 0.476689,-0.34158 0.853697,-0.34158 z m 1.36684,6.13812 c -1.032838,0 -1.834033,0.22989 -2.40347,0.68937 -0.56551,0.4634 -0.84801,1.08732 -0.84801,1.87275 0,0.47126 0.06471,0.85826 0.194302,1.16065 0.133524,0.30632 0.333951,0.62634 0.600998,0.96015 h -0.600998 c -0.267044,0 -0.508511,-0.0295 -0.724504,-0.0884 -0.215992,-0.0589 -0.400812,-0.1571 -0.553971,-0.29455 -0.161012,-0.13745 -0.286396,-0.32982 -0.376722,-0.57723 -0.09032,-0.24741 -0.135908,-0.55937 -0.135908,-0.93637 0,-0.39272 0.05313,-0.78551 0.159165,-1.17823 0.102106,-0.39271 0.188725,-0.67924 0.259414,-0.85989 v -0.0589 h -1.131197 c -0.09032,0.32202 -0.159063,0.64783 -0.206187,0.97771 -0.05105,0.33381 -0.07648,0.67523 -0.07648,1.02475 0,1.05247 0.261107,1.83227 0.783416,2.33887 0.522311,0.5066 1.34139,0.75965 2.456698,0.75965 h 5.831684 v -1.03663 l -0.28267,-0.0708 c 0.157086,-0.28668 0.27265,-0.55936 0.347266,-0.81855 0.07854,-0.25527 0.117824,-0.57354 0.117824,-0.95447 0,-0.3613 -0.07856,-0.72463 -0.235646,-1.08986 -0.153159,-0.36522 -0.369194,-0.67542 -0.648023,-0.93069 -0.298463,-0.2749 -0.653735,-0.49269 -1.066083,-0.6537 -0.408424,-0.15709 -0.895384,-0.23565 -1.460894,-0.23565 z m 0.02379,1.14257 c 0.777573,0 1.37028,0.175 1.778701,0.52451 0.408424,0.34952 0.612884,0.82842 0.612884,1.43713 0,0.25133 -0.02946,0.50262 -0.08837,0.75395 -0.05498,0.25527 -0.149145,0.53022 -0.28267,0.82476 h -3.587893 c -0.208139,-0.27097 -0.375076,-0.56908 -0.500745,-0.89504 -0.121743,-0.32202 -0.182417,-0.64432 -0.182417,-0.96634 0,-0.60086 0.190609,-1.03066 0.57154,-1.28985 0.380934,-0.25919 0.940665,-0.38912 1.67897,-0.38912 z m -0.124026,6.36188 c -1.087819,0 -1.928294,0.30669 -2.521291,0.91933 -0.589071,0.61263 -0.883669,1.46468 -0.883669,2.55643 0,0.42806 0.05313,0.83646 0.159165,1.22525 0.106032,0.38879 0.237721,0.76948 0.394806,1.14257 h 1.20768 v -0.0589 c -0.172794,-0.19243 -0.349551,-0.51597 -0.530201,-0.97152 -0.17672,-0.45162 -0.265099,-0.90157 -0.265099,-1.34926 0,-0.33774 0.04734,-0.64794 0.141592,-0.9307 0.09425,-0.27883 0.235243,-0.52029 0.423748,-0.7245 0.192429,-0.21207 0.437926,-0.37901 0.736389,-0.50075 0.302389,-0.12174 0.655904,-0.18242 1.060399,-0.18242 v 4.84777 h 0.600999 c 0.954296,0 1.690267,-0.24146 2.208649,-0.7245 0.518385,-0.47911 0.777732,-1.16247 0.777732,-2.05001 0,-0.95822 -0.315995,-1.73171 -0.948264,-2.32078 -0.63227,-0.58515 -1.486596,-0.87799 -2.562635,-0.87799 z m 0.772046,1.12551 c 0.518385,0.0471 0.952214,0.24529 1.301732,0.5948 0.349514,0.35344 0.523996,0.82655 0.523996,1.41955 0,0.58908 -0.158874,1.02694 -0.476972,1.31362 -0.318098,0.29061 -0.767538,0.4379 -1.348756,0.44183 z m -4.023527,6.52674 v 1.10743 h 4.671034 c 0.239556,0.29453 0.434194,0.6007 0.583427,0.9188 0.153157,0.3181 0.22996,0.64794 0.22996,0.98961 0,0.21206 -0.0098,0.39512 -0.02946,0.54828 -0.01572,0.15709 -0.04341,0.31772 -0.08268,0.48266 v 0.0589 h 1.13688 c 0.02749,-0.17279 0.04537,-0.30221 0.05323,-0.38861 0.01177,-0.0864 0.01757,-0.22563 0.01757,-0.41806 0,-0.34951 -0.07453,-0.69321 -0.223758,-1.03094 -0.145304,-0.33381 -0.394832,-0.72081 -0.748273,-1.16065 h 0.972031 v -1.10743 z m 0,8.46511 v 1.18391 l 2.444814,0.8599 v 3.79356 l -2.444814,0.86042 v 1.24282 l 8.771041,-3.19257 v -1.55542 z M 5.0433183,246.04416 H 29.1204 53.197483 v 22.88646 22.88646 H 29.1204 5.0433173 v -22.88646 z m 60.0723007,1.99264 4.306197,1.54358 -4.306197,1.53737 z m -35.995737,2.77193 c -4.625335,0 -5.245687,0.0528 -5.993947,0.50901 -1.427414,0.87064 -1.431235,3.24733 -0.0062,3.93671 h 5.3e-4 c 0.811186,0.39077 11.069637,0.40476 11.922786,0.016 1.497272,-0.68221 1.539658,-3.05707 0.0708,-3.95273 -0.74826,-0.45623 -1.368618,-0.50901 -5.99395,-0.50901 z m 32.549951,4.01422 v 1.10743 h 4.671034 c 0.239556,0.29454 0.434194,0.60071 0.583427,0.91881 0.153157,0.31809 0.22996,0.64846 0.22996,0.99012 0,0.21206 -0.0098,0.39461 -0.02946,0.54777 -0.01572,0.15708 -0.04341,0.31772 -0.08268,0.48266 v 0.0589 h 1.13688 c 0.02749,-0.1728 0.04537,-0.30221 0.05323,-0.38861 0.01177,-0.0864 0.01757,-0.22563 0.01757,-0.41806 0,-0.34952 -0.07453,-0.69321 -0.223758,-1.03095 -0.145304,-0.3338 -0.394832,-0.72081 -0.748273,-1.16065 h 0.972031 v -1.10743 z m 3.280937,4.68912 c -0.577289,0 -1.081617,0.0786 -1.513602,0.23565 -0.431985,0.15708 -0.789532,0.37891 -1.072285,0.66559 -0.282755,0.28275 -0.49476,0.62242 -0.636137,1.01906 -0.137451,0.39664 -0.20619,0.83274 -0.20619,1.30793 0,0.37308 0.0491,0.72432 0.147277,1.0542 0.09818,0.33381 0.235657,0.68556 0.41238,1.05472 h 1.219047 v -0.0589 c -0.06676,-0.0825 -0.14708,-0.19452 -0.24133,-0.33589 -0.09032,-0.14138 -0.176429,-0.29271 -0.2589,-0.45372 -0.09425,-0.18458 -0.171053,-0.39255 -0.22996,-0.62425 -0.05891,-0.2317 -0.08836,-0.45932 -0.08836,-0.68317 0,-0.64405 0.212005,-1.14486 0.636135,-1.50223 0.428059,-0.35344 1.038648,-0.5302 1.83193,-0.5302 0.816848,0 1.435497,0.18079 1.8557,0.54209 0.424133,0.36522 0.636138,0.862 0.636138,1.49034 0,0.34167 -0.0705,0.69115 -0.211873,1.04852 -0.141378,0.3613 -0.343562,0.71078 -0.606682,1.04851 v 0.0589 h 1.230934 c 0.153157,-0.30239 0.282573,-0.63627 0.388607,-1.00149 0.106032,-0.3613 0.159163,-0.73042 0.159163,-1.10743 0,-0.97 -0.306173,-1.75156 -0.918808,-2.34456 -0.612635,-0.58907 -1.45714,-0.88367 -2.533179,-0.88367 z m -35.830369,0.81959 c -7.606411,0 -8.62855,0.14194 -9.239229,1.28313 -0.38667,0.72238 -0.387046,11.26253 -5.29e-4,11.9848 0.156972,0.29332 0.66299,0.6979 1.124479,0.89865 0.643461,0.27994 2.522228,0.36717 8.057906,0.37517 7.671581,0.011 8.68371,-0.1276 9.296591,-1.27279 0.386979,-0.72308 0.386979,-11.26274 0,-11.98583 -0.610751,-1.14119 -1.632821,-1.28313 -9.239229,-1.28313 z m -6.918442,2.49029 h 13.897859 v 9.05371 h -13.89786 z m 1.7632,0.73897 2.800863,7.69462 h 0.329178 1.03508 0.0036 l 0.104386,-0.29662 0.672828,-1.84795 h 3.305225 l 0.754475,2.14457 h 1.090375 l -2.800864,-7.69462 h -0.329178 -1.035079 -0.0088 l -0.41703,1.16892 -2.01693,5.5423 -2.392619,-6.71122 z m 6.613551,0.9679 1.322398,3.70365 H 29.23047 Z m 31.091123,1.74563 v 1.10743 h 4.912879 c 0.231701,0.30239 0.422309,0.6189 0.571542,0.94878 0.149231,0.32988 0.223758,0.64587 0.223758,0.94826 0,0.29453 -0.04155,0.53424 -0.124023,0.71882 -0.07854,0.18457 -0.199895,0.32557 -0.364837,0.42375 -0.14923,0.0942 -0.357722,0.15895 -0.624765,0.1943 -0.263121,0.0353 -0.545622,0.0532 -0.848011,0.0532 h -3.746543 v 1.10743 h 4.270542 c 0.805064,0 1.421958,-0.18658 1.850017,-0.55965 0.428056,-0.37308 0.641821,-0.91493 0.641821,-1.62575 0,-0.38878 -0.08032,-0.76772 -0.241329,-1.13688 -0.161015,-0.36915 -0.385112,-0.72669 -0.671796,-1.07228 h 3.316595 v -1.10743 z m 7.681185,7.57577 v 1.2485 h 1.148768 v -1.2485 z m -7.681185,0.0703 v 1.10794 h 6.57996 v -1.10794 z m 6.57996,2.5802 -6.57996,2.64532 v 1.11311 l 6.57996,2.66237 v -1.16014 l -5.23689,-2.02055 5.23689,-2.03812 z m -3.328479,7.40472 c -1.087819,0 -1.928294,0.30617 -2.521291,0.9188 -0.589071,0.61264 -0.883669,1.46521 -0.883669,2.55695 0,0.42806 0.05313,0.83646 0.159165,1.22525 0.106032,0.38879 0.237721,0.76949 0.394806,1.14257 h 1.20768 v -0.0589 c -0.172794,-0.19243 -0.349551,-0.51649 -0.530201,-0.97204 -0.17672,-0.45162 -0.265099,-0.90106 -0.265099,-1.34875 0,-0.33774 0.04734,-0.64794 0.141592,-0.93069 0.09425,-0.27883 0.235243,-0.5203 0.423748,-0.72451 0.192429,-0.21206 0.437926,-0.379 0.736389,-0.50074 0.302389,-0.12175 0.655904,-0.18294 1.060399,-0.18294 v 4.84829 h 0.600999 c 0.954296,0 1.690267,-0.24147 2.208649,-0.72451 0.518385,-0.47911 0.777732,-1.16247 0.777732,-2.05 0,-0.95823 -0.315995,-1.73172 -0.948264,-2.32079 -0.63227,-0.58514 -1.486596,-0.87798 -2.562635,-0.87798 z m 0.772046,1.12499 c 0.518385,0.0471 0.952214,0.2458 1.301732,0.59531 0.349514,0.35345 0.523996,0.82656 0.523996,1.41956 0,0.58907 -0.158874,1.02693 -0.476972,1.31361 -0.318098,0.29061 -0.767538,0.43791 -1.348756,0.44183 z m -3.628718,6.08542 c -0.137451,0.2749 -0.265107,0.61456 -0.382923,1.01906 -0.113888,0.40842 -0.171048,0.8561 -0.171048,1.34307 0,0.86004 0.192365,1.53761 0.577225,2.03243 0.384861,0.49875 0.87761,0.74776 1.478463,0.74776 0.479113,0 0.864359,-0.13924 1.15497,-0.41806 0.286681,-0.27883 0.488865,-0.67565 0.606679,-1.19011 0.03927,-0.16887 0.08258,-0.38087 0.129709,-0.63614 0.04713,-0.25133 0.09395,-0.47895 0.141076,-0.68316 0.0864,-0.36915 0.198448,-0.63604 0.335896,-0.80098 0.137451,-0.16887 0.341395,-0.25373 0.612368,-0.25373 0.306316,0 0.536204,0.13975 0.689361,0.41857 0.157088,0.27883 0.235646,0.62025 0.235646,1.02475 0,0.38879 -0.07277,0.78561 -0.218075,1.19011 -0.141377,0.40449 -0.31586,0.74819 -0.523999,1.03094 v 0.0589 h 1.183907 c 0.137451,-0.26705 0.253532,-0.60268 0.347781,-1.00717 0.09818,-0.40057 0.147281,-0.7974 0.147281,-1.19011 0,-0.4202 -0.05541,-0.80142 -0.165365,-1.14308 -0.106034,-0.33774 -0.251058,-0.61621 -0.435634,-0.83613 -0.188502,-0.22777 -0.402783,-0.39874 -0.642337,-0.51263 -0.239556,-0.10996 -0.494871,-0.16485 -0.765844,-0.16485 -0.431988,0 -0.797078,0.1196 -1.095542,0.35916 -0.294536,0.24348 -0.518117,0.65415 -0.671277,1.23145 -0.05498,0.20813 -0.106351,0.43751 -0.153479,0.68884 -0.04713,0.25527 -0.08816,0.46148 -0.123505,0.61857 -0.09425,0.42413 -0.20806,0.71118 -0.341582,0.86041 -0.133522,0.14923 -0.32992,0.22376 -0.589111,0.22376 -0.337735,0 -0.584988,-0.13748 -0.742074,-0.41238 -0.157086,-0.2749 -0.235643,-0.65612 -0.235643,-1.14308 0,-0.39271 0.07628,-0.80287 0.229441,-1.23093 0.157086,-0.42806 0.367334,-0.81682 0.630454,-1.16634 v -0.0589 z"
       id="path21"
       inkscape:connector-curvature="0" />
  </g>
</svg>
